<?xml version="1.0" encoding="UTF-8" standalone="no"?>
<!-- Generator: Adobe Illustrator 18.1.1, SVG Export Plug-In . SVG Version: 6.00 Build 0)  -->

<svg
   xmlns:dc="http://purl.org/dc/elements/1.1/"
   xmlns:cc="http://creativecommons.org/ns#"
   xmlns:rdf="http://www.w3.org/1999/02/22-rdf-syntax-ns#"
   xmlns:svg="http://www.w3.org/2000/svg"
   xmlns="http://www.w3.org/2000/svg"
   xmlns:sodipodi="http://sodipodi.sourceforge.net/DTD/sodipodi-0.dtd"
   xmlns:inkscape="http://www.inkscape.org/namespaces/inkscape"
   version="1.1"
   id="Layer_1"
   x="0px"
   y="0px"
   viewBox="0 0 522.49998 223.80001"
   enable-background="new 0 0 841.9 595.3"
   xml:space="preserve"
   inkscape:version="0.91 r13725"
   sodipodi:docname="logo.svg"
   width="522.5"
   height="223.8"
   inkscape:export-filename="/home/zac/Dev/site/logo.png"
   inkscape:export-xdpi="90"
   inkscape:export-ydpi="90"><metadata
     id="metadata21"><rdf:RDF><cc:Work
         rdf:about=""><dc:format>image/svg+xml</dc:format><dc:type
           rdf:resource="http://purl.org/dc/dcmitype/StillImage" /><dc:title></dc:title></cc:Work></rdf:RDF></metadata><defs
     id="defs19" /><sodipodi:namedview
     pagecolor="#ffffff"
     bordercolor="#666666"
     borderopacity="1"
     objecttolerance="10"
     gridtolerance="10"
     guidetolerance="10"
     inkscape:pageopacity="0"
     inkscape:pageshadow="2"
     inkscape:window-width="1366"
     inkscape:window-height="702"
     id="namedview17"
     showgrid="false"
     fit-margin-top="0"
     fit-margin-left="0"
     fit-margin-right="0"
     fit-margin-bottom="0"
     inkscape:zoom="0.36821474"
     inkscape:cx="-61.555882"
     inkscape:cy="369.55158"
     inkscape:window-x="0"
     inkscape:window-y="27"
     inkscape:window-maximized="1"
     inkscape:current-layer="Layer_1" /><g
     id="g3"
     transform="translate(-129.1,-172.5)"
     style="fill:#ffffff;fill-opacity:1"><g
       id="g5"
       style="fill:#ffffff;fill-opacity:1"><path
         d="m 646.6,242.6 -33.8,2.2 c -0.4,13.3 -1.1,36.7 -1.1,63 0,28.8 0,50.4 1.4,63 0.7,7.6 3.6,10.4 9,10.4 14,0 23,-18 24.5,-30.6 l 1.8,0 3.2,7.6 c -6.1,20.2 -23.4,33.5 -48.6,33.5 -13,0 -24.1,-3.6 -29.9,-10.1 -4.3,-5.4 -5.8,-11.2 -6.1,-21.2 -0.4,-26.6 1.1,-83.2 1.4,-115.9 l -19.1,-2.2 1.8,-5.4 17.6,0 c 0.4,-18.7 0,-25.2 0,-32.4 0,-5.4 -1.1,-7.9 -2.9,-9.7 -3.2,-3.2 -13.3,-5.8 -19.8,-5.8 -26.3,0 -32,7.9 -32,26.3 0,7.2 1.4,13.3 5.8,19.1 5,1.1 10.1,3.2 12.2,4.3 -0.7,14 -1.1,32.8 -0.7,41 l -4,1.4 c -0.7,-20.5 -12.6,-44.3 -34.9,-44.3 -14.4,0 -22.7,8.6 -22.7,21.6 0,7.9 2.9,13.3 9,17.6 10.4,7.6 36.7,20.5 46.4,26.6 13.3,9 18.4,20.9 18.4,35.3 0,35.6 -25.2,53.6 -59.4,53.6 -14.8,0 -31.7,-4 -41.4,-8.6 0,-7.9 0.7,-30.6 0,-49.7 l 4,-0.7 c 0.7,7.6 2.5,17.3 7.6,28.4 6.8,16.2 20.2,24.5 34.6,24.8 16.6,0.4 24.8,-9 24.8,-22.3 0,-9 -5,-15.1 -12.2,-20.2 -10.1,-6.1 -24.5,-14.4 -33.1,-19.1 -18.7,-11.2 -25.2,-24.5 -25.2,-42.1 0,-29.9 22,-50.8 52.9,-50.8 7.9,0 11.5,0.7 16.2,1.8 -4.7,-5 -7.2,-11.9 -7.2,-18.7 0,-12.2 10.1,-34.6 48.6,-34.6 2.2,0 16.9,0.7 19.8,2.2 10.1,-2.2 34.6,-7.2 40.7,-9.4 l 0.7,1.1 c -0.4,9 -2.2,46.8 -2.2,63 l 34.3,0 -0.4,6 z"
         id="path7"
         inkscape:connector-curvature="0"
         style="fill:#ffffff;fill-opacity:1" /></g><g
       id="g9"
       style="fill:#ffffff;fill-opacity:1"><path
         d="m 439.3,290.5 c 0,3.3 -2.1,5 -6.4,5 l -97,0 c -0.7,6.4 -1.1,13 -1.1,19.8 0,19 4.5,33.6 13.5,43.8 9,10.2 21.9,15.3 38.5,15.3 8.4,0 16.8,-2.2 25.3,-6.7 8.5,-4.5 15.3,-10.2 20.5,-17.2 l 0.9,-0.4 c 1.1,0 2.1,0.7 3.1,1.9 1,1.3 1.5,2.8 1.5,4.6 0,2.5 -3.8,7.6 -11.3,15.5 -7.6,7.8 -15.7,13.8 -24.6,18 -8.9,4.2 -18.1,6.2 -27.8,6.2 -21.2,0 -39.1,-7.8 -53.6,-23.4 -14.5,-15.6 -21.8,-34.7 -21.8,-57.3 0,-23.1 7.1,-42.7 21.3,-58.8 14.2,-16 32.2,-24.1 54.1,-24.1 18.3,0 33.7,6 46.1,18 12.5,12.1 18.8,25.3 18.8,39.8 z M 407,275 c 0,-8.8 -3,-16.2 -9.1,-22 -6.1,-5.8 -13.9,-8.8 -23.4,-8.8 -9.1,0 -17,3.8 -23.6,11.4 -6.7,7.6 -11.2,17.6 -13.5,30 l 49.2,-1.4 c 7.4,-0.1 12.7,-0.8 15.8,-2.1 3.1,-1.4 4.6,-3.7 4.6,-7.1 z"
         id="path11"
         inkscape:connector-curvature="0"
         style="fill:#ffffff;fill-opacity:1" /></g><g
       id="g13"
       style="fill:#ffffff;fill-opacity:1"><path
         d="m 129.1,231.1 58.7,0 0,26.8 c 8.8,-10.9 17.6,-18.8 26.6,-23.4 9,-4.7 19.9,-7 32.8,-7 17.4,0 31.1,5.2 40.9,15.6 9.9,10.4 14.8,26.4 14.8,48.1 l 0,104.5 -63.3,0 0,-90.4 c 0,-10.3 -1.9,-17.6 -5.7,-21.9 -3.8,-4.3 -9.2,-6.4 -16.1,-6.4 -7.6,0 -13.8,2.9 -18.6,8.7 -4.7,5.8 -7.1,16.1 -7.1,31.1 l 0,78.9 -63,0 0,-164.6 z"
         id="path15"
         inkscape:connector-curvature="0"
         style="fill:#ffffff;fill-opacity:1" /></g></g></svg>